<?xml version="1.0" encoding="utf-8"?><svg xmlns="http://www.w3.org/2000/svg" xmlns:xlink="http://www.w3.org/1999/xlink"><symbol viewBox="0 0 64 64" id="arrow-down" xmlns="http://www.w3.org/2000/svg"><path d="M32 51.5L0 18.83l6.62-6.33L32 38.76 57.38 12.5 64 18.83z" data-name="&lt;Compound Path>"/></symbol><symbol viewBox="0 0 6 9" id="arrow-right" xmlns="http://www.w3.org/2000/svg"><path d="M.333 1.863l3.054 3.012L.333 7.888l.94.925 4-3.938-4-3.938-.94.926z"/></symbol><symbol viewBox="0 0 64 64" id="arrow-up" xmlns="http://www.w3.org/2000/svg"><path d="M32 12.5l32 32.67-6.62 6.33L32 25.24 6.62 51.5 0 45.17z" data-name="&lt;Compound Path>"/></symbol><symbol viewBox="0 0 219 219" id="attach" xmlns="http://www.w3.org/2000/svg"><path d="M109.848 0h-.211C77.784 0 52.5 23.913 52.5 54.441v105.605C52.5 191.452 80.345 219 111.709 219h.791v-26h-.791C95.117 193 78.5 176.678 78.5 160.047V54.441C78.5 38.493 92.363 26 109.637 26h.211c17.095 0 29.652 12.228 29.652 28.441v75.229c0 7.351-5.009 13.33-11.575 13.33h-.124c-6.787 0-13.301-6.354-13.301-13.33V66h-25v63.67c0 21.493 17.011 38.33 38.301 38.33h.124c21.454 0 38.575-17.194 38.575-38.33V54.441C166.5 23.913 141.802 0 109.848 0z"/></symbol><symbol viewBox="0 0 64 64" id="close" xmlns="http://www.w3.org/2000/svg"><g fill-rule="evenodd"><path d="M14.732 14.732a2.5 2.5 0 013.536 0l30.405 30.406a2.5 2.5 0 11-3.535 3.535L14.732 18.268a2.5 2.5 0 010-3.536z"/><path d="M14.732 48.673a2.5 2.5 0 003.536 0l30.405-30.405a2.5 2.5 0 10-3.535-3.536L14.732 45.138a2.5 2.5 0 000 3.535z"/></g></symbol><symbol viewBox="0 0 48 48" id="filter" xmlns="http://www.w3.org/2000/svg"><path d="M47 12a2 2 0 00-2-2H24a2 2 0 000 4h21a2 2 0 002-2zM3 14h5.35a6 6 0 100-4H3a2 2 0 000 4zm11-4a2 2 0 11-2 2 2 2 0 012-2zm31 12h-7.35a6 6 0 100 4H45a2 2 0 000-4zm-13 4a2 2 0 112-2 2 2 0 01-2 2zm-10-4H3a2 2 0 000 4h19a2 2 0 000-4zm23 12H28a2 2 0 000 4h17a2 2 0 000-4zm-27-4a6 6 0 00-5.65 4H3a2 2 0 000 4h9.35A6 6 0 1018 30zm0 8a2 2 0 112-2 2 2 0 01-2 2z"/></symbol><symbol viewBox="0 0 26 26" id="mail" xmlns="http://www.w3.org/2000/svg"><path d="M23.23 4H2.77C1.795 4 1 4.844 1 5.88v14.24C1 21.155 1.794 22 2.77 22h20.46c.976 0 1.77-.844 1.77-1.88V5.88C25 4.845 24.206 4 23.23 4zm-7.563 9L23.5 7.347v11.306L15.667 13zm7.562-7.5c.054 0 .108.032.155.08L13 13.076 2.616 5.581c.047-.049.101-.081.155-.081h20.458zM2.5 18.653V7.347L10.333 13 2.5 18.653zm.27 1.847c-.053 0-.107-.032-.154-.08l8.998-6.495.948.683c.022.017.048.023.072.037a.745.745 0 00.365.105h.002a.745.745 0 00.365-.105c.024-.014.05-.02.072-.037l.947-.683 9 6.494c-.048.049-.102.081-.156.081H2.771z"/></symbol><symbol viewBox="0 0 511.999 511.999" id="search" xmlns="http://www.w3.org/2000/svg"><path d="M225.773.616C101.283.616 0 101.622 0 225.773S101.284 450.93 225.773 450.93s225.774-101.006 225.774-225.157S350.263.616 225.773.616zm0 413.301c-104.084 0-188.761-84.406-188.761-188.145 0-103.745 84.677-188.145 188.761-188.145s188.761 84.4 188.761 188.145c.001 103.739-84.676 188.145-188.761 188.145z"/><path d="M506.547 479.756L385.024 358.85c-7.248-7.205-18.963-7.174-26.174.068-7.205 7.248-7.174 18.962.068 26.174l121.523 120.906a18.457 18.457 0 0013.053 5.385 18.45 18.45 0 0013.121-5.453c7.205-7.249 7.174-18.963-.068-26.174z"/></symbol><symbol viewBox="0 0 512 512" id="send" xmlns="http://www.w3.org/2000/svg"><g data-name="1"><path d="M291.48 449.94A15 15 0 01278 441.5l-70.5-144.93-144.93-70.49a15 15 0 011-27.41L435.48 49.08A15 15 0 01455 68.6L305.4 440.54a15 15 0 01-13.4 9.39zm-185.38-236l119.18 58a15 15 0 016.93 6.93l58 119.18L414 90z"/><path d="M218.72 300.35a15 15 0 01-10.6-25.61L430.47 52.39a15 15 0 1121.21 21.22L229.33 296a15 15 0 01-10.61 4.35z"/></g></symbol><symbol viewBox="0 0 1792 1792" id="star" xmlns="http://www.w3.org/2000/svg"><path d="M1728 647q0 22-26 48l-363 354 86 500q1 7 1 20 0 21-10.5 35.5T1385 1619q-19 0-40-12l-449-236-449 236q-22 12-40 12-21 0-31.5-14.5T365 1569q0-6 2-20l86-500L89 695q-25-27-25-48 0-37 56-46l502-73L847 73q19-41 49-41t49 41l225 455 502 73q56 9 56 46z"/></symbol><symbol viewBox="0 0 512 512" id="user" xmlns="http://www.w3.org/2000/svg"><path d="M510.702 438.722c-2.251-10.813-12.84-17.754-23.657-15.503-10.814 2.251-17.755 12.843-15.503 23.656 1.297 6.229-.248 12.613-4.236 17.519-2.31 2.841-7.461 7.606-15.999 7.606H60.693c-8.538 0-13.689-4.766-15.999-7.606-3.989-4.905-5.533-11.29-4.236-17.519 20.756-99.695 108.691-172.521 210.24-174.977a137.229 137.229 0 0010.624-.001c71.532 1.716 137.648 37.947 177.687 97.66 6.151 9.175 18.574 11.625 27.75 5.474 9.174-6.151 11.625-18.575 5.473-27.749-32.817-48.944-80.47-84.534-134.804-102.417C370.538 220.036 392 180.477 392 136 392 61.01 330.991 0 256 0S120 61.01 120 136c0 44.504 21.488 84.084 54.633 108.911-30.368 9.998-58.863 25.555-83.803 46.069-45.732 37.617-77.529 90.086-89.532 147.742-3.762 18.067.745 36.623 12.363 50.909C25.222 503.847 42.365 512 60.693 512h390.613c18.329 0 35.472-8.153 47.032-22.369 11.62-14.286 16.126-32.842 12.364-50.909zM160 136c0-52.935 43.065-96 96-96s96 43.065 96 96c0 51.305-40.455 93.339-91.141 95.878a261.967 261.967 0 00-9.699.001C200.465 229.35 160 187.312 160 136z"/></symbol></svg>